<?xml version="1.0" encoding="UTF-8"?>
<svg id="Capa_1" xmlns="http://www.w3.org/2000/svg" version="1.1" viewBox="0 0 100 100">
  <!-- Generator: Adobe Illustrator 29.5.1, SVG Export Plug-In . SVG Version: 2.1.0 Build 141)  -->
  <defs>
    <style>
      .st0 {
        stroke: #fff;
        stroke-width: 2px;
      }

      .st0, .st1 {
        fill: #00c9df;
      }
    </style>
  </defs>
  <path class="st1" d="M48.97,91.44l-17.23-37.45c4.29,4.66,10.42,7.56,17.23,7.56s12.97-2.94,17.26-7.62l-17.26,37.51ZM69.77,46.24l-1.55,3.36c-3.95,6.56-11.09,10.95-19.25,10.95s-15.23-4.3-19.19-10.81l-1.61-3.5h41.6ZM48.97,15.14c12.42,0,22.5,10.16,22.5,22.71,0,2.59-.43,5.08-1.22,7.4H27.68c-.78-2.31-1.21-4.8-1.21-7.4,0-12.54,10.08-22.71,22.5-22.71Z"/>
  <path class="st0" d="M36.58,42.08c.68.71,1.74,1.14,3.37,1.14,1.74,0,2.85-.44,3.52-1.14.01-.01.02-.02.03-.04-.97.19-2.11.28-3.4.28-1.37,0-2.57-.1-3.58-.31.02.02.05.04.07.07ZM56.5,42.05c.79.74,1.93,1.17,3.55,1.17,1.75,0,2.81-.44,3.42-1.12.02-.02.04-.05.06-.07-.99.2-2.16.3-3.49.3s-2.57-.11-3.62-.34c.02.02.05.04.07.06ZM50,39.44c-1.75,0-2.81.44-3.42,1.12-.02.02-.04.05-.07.07.99-.2,2.16-.3,3.49-.3s2.57.11,3.62.34c-.02-.02-.04-.04-.07-.06-.79-.74-1.93-1.17-3.55-1.17ZM30.05,39.44c-1.62,0-2.76.43-3.55,1.17-.01.01-.03.02-.04.04,1.01-.22,2.22-.32,3.59-.32s2.5.09,3.49.3c-.01,0-.02-.02-.03-.03-.73-.73-1.84-1.16-3.46-1.16ZM69.95,39.44c-1.63,0-2.69.43-3.37,1.14-.01.01-.02.02-.04.03.97-.19,2.11-.28,3.4-.28s2.5.09,3.49.3c-.01,0-.02-.02-.03-.03-.73-.73-1.84-1.16-3.46-1.16ZM36.49,33.4c.73.73,1.84,1.16,3.46,1.16,1.74,0,2.85-.44,3.52-1.14.01-.01.02-.02.03-.04-.97.19-2.11.28-3.4.28-1.41,0-2.65-.11-3.68-.34.02.02.05.05.07.07ZM56.47,33.39c.77.74,1.87,1.17,3.43,1.17,1.74,0,2.85-.44,3.52-1.14.01-.01.02-.02.03-.03-.97.19-2.11.28-3.4.28-1.37,0-2.61-.11-3.67-.35.03.03.06.05.09.08ZM50,30.78c-1.75,0-2.81.44-3.42,1.12-.02.02-.04.05-.07.07.99-.2,2.16-.3,3.49-.3s2.57.1,3.62.34c-.02-.02-.05-.04-.07-.06-.79-.74-1.93-1.17-3.55-1.17ZM30.05,30.78c-1.62,0-2.76.43-3.55,1.17-.01.01-.03.02-.04.04,1.01-.22,2.22-.32,3.59-.32s2.52.1,3.52.32c-.02-.02-.04-.04-.06-.06-.73-.73-1.84-1.16-3.46-1.16ZM69.95,30.78c-1.63,0-2.69.43-3.37,1.14-.01.01-.02.02-.03.03.97-.19,2.11-.28,3.4-.28s2.49.1,3.51.32c-.02-.02-.04-.03-.05-.05-.73-.73-1.84-1.16-3.46-1.16ZM81,33.67h-1c-1.37,0-2.57-.1-3.59-.32.01.01.02.02.04.03.79.74,1.93,1.17,3.55,1.17h1v7.78h-1c-1.37,0-2.57-.1-3.58-.31.02.02.04.04.07.07.67.7,1.77,1.14,3.52,1.14h1v7.78h-1c-2.88,0-5.17-.47-6.5-1.72-.79-.74-1.93-1.17-3.55-1.17-1.63,0-2.69.43-3.37,1.14-.64.67-1.56,1.1-2.63,1.36-1.08.27-2.39.39-3.91.39-2.88,0-5.17-.47-6.5-1.72-.79-.74-1.93-1.17-3.55-1.17-1.74,0-2.85.44-3.52,1.14-.64.67-1.56,1.1-2.63,1.36-1.08.27-2.38.39-3.91.39s-2.83-.12-3.89-.39c-1.05-.27-1.96-.7-2.59-1.38-.61-.67-1.67-1.12-3.42-1.12-1.74,0-2.85.44-3.52,1.14-.64.67-1.56,1.1-2.63,1.36-1.08.27-2.39.39-3.91.39h-1v-7.78h1c1.74,0,2.85-.44,3.52-1.14.03-.03.06-.06.09-.09-1.05.24-2.26.34-3.61.34h-1v-7.78h1c1.74,0,2.85-.44,3.52-1.14.03-.03.06-.06.09-.09-1.05.24-2.26.34-3.61.34h-1v-7.78h1c1.74,0,2.85-.44,3.52-1.14.64-.67,1.56-1.1,2.63-1.36,1.08-.27,2.38-.39,3.91-.39s2.75.12,3.82.39c1.06.27,1.97.69,2.62,1.34.73.73,1.84,1.16,3.46,1.16,1.74,0,2.85-.44,3.52-1.14.64-.67,1.56-1.1,2.63-1.36,1.08-.27,2.39-.39,3.91-.39,2.88,0,5.16.47,6.47,1.72.77.74,1.87,1.16,3.43,1.16,1.74,0,2.85-.44,3.52-1.14.64-.67,1.56-1.1,2.63-1.36,1.08-.27,2.39-.39,3.91-.39,2.88,0,5.17.47,6.5,1.72.79.74,1.93,1.17,3.55,1.17h1v7.78Z"/>
</svg>