<svg width="100" height="100" viewBox="0 0 100 100" fill="none" xmlns="http://www.w3.org/2000/svg">
<g clip-path="url(#clip0_177_961)">
<rect width="100" height="100" fill="white"/>
<mask id="mask0_177_961" style="mask-type:alpha" maskUnits="userSpaceOnUse" x="0" y="0" width="100" height="100">
<rect width="100" height="100" fill="#D9D9D9"/>
</mask>
<g mask="url(#mask0_177_961)">
<path d="M50 91.6667C38.8195 82.1528 30.4688 73.316 24.9479 65.1563C19.4271 56.9965 16.6667 49.4445 16.6667 42.5C16.6667 32.0833 20.0174 23.7847 26.7188 17.6042C33.4202 11.4236 41.1806 8.33334 50 8.33334C58.8195 8.33334 66.5799 11.4236 73.2813 17.6042C79.9827 23.7847 83.3334 32.0833 83.3334 42.5C83.3334 49.4445 80.5729 56.9965 75.0521 65.1563C69.5313 73.316 61.1806 82.1528 50 91.6667Z" fill="#1C1B1F"/>
</g>
<circle cx="50" cy="41" r="24" fill="white"/>
<mask id="mask1_177_961" style="mask-type:alpha" maskUnits="userSpaceOnUse" x="32" y="23" width="36" height="36">
<rect x="32" y="23" width="36" height="36" fill="#D9D9D9"/>
</mask>
<g mask="url(#mask1_177_961)">
<path d="M35 50V47C35.95 47 36.6563 46.75 37.1188 46.25C37.5813 45.75 38.55 45.5 40.025 45.5C41.5 45.5 42.4687 45.75 42.9312 46.25C43.3937 46.75 44.075 47 44.975 47C45.925 47 46.6312 46.75 47.0938 46.25C47.5563 45.75 48.525 45.5 50 45.5C51.425 45.5 52.3937 45.75 52.9062 46.25C53.4188 46.75 54.125 47 55.025 47C55.975 47 56.6688 46.75 57.1063 46.25C57.5438 45.75 58.5 45.5 59.975 45.5C61.45 45.5 62.4187 45.75 62.8812 46.25C63.3437 46.75 64.05 47 65 47V50C63.575 50 62.6063 49.75 62.0938 49.25C61.5812 48.75 60.875 48.5 59.975 48.5C59.075 48.5 58.3938 48.75 57.9313 49.25C57.4688 49.75 56.5 50 55.025 50C53.6 50 52.6313 49.75 52.1188 49.25C51.6063 48.75 50.9 48.5 50 48.5C49.05 48.5 48.3438 48.75 47.8813 49.25C47.4188 49.75 46.45 50 44.975 50C43.5 50 42.5438 49.75 42.1063 49.25C41.6688 48.75 40.975 48.5 40.025 48.5C39.075 48.5 38.3688 48.75 37.9062 49.25C37.4437 49.75 36.475 50 35 50ZM35 44V41C35.95 41 36.6563 40.75 37.1188 40.25C37.5813 39.75 38.55 39.5 40.025 39.5C41.45 39.5 42.4063 39.75 42.8938 40.25C43.3813 40.75 44.075 41 44.975 41C45.925 41 46.6312 40.75 47.0938 40.25C47.5563 39.75 48.525 39.5 50 39.5C51.425 39.5 52.3875 39.75 52.8875 40.25C53.3875 40.75 54.075 41 54.95 41C55.9 41 56.6063 40.75 57.0688 40.25C57.5313 39.75 58.5 39.5 59.975 39.5C61.4 39.5 62.3687 39.75 62.8812 40.25C63.3937 40.75 64.1 41 65 41V44C63.525 44 62.5438 43.75 62.0563 43.25C61.5688 42.75 60.875 42.5 59.975 42.5C59.075 42.5 58.3938 42.75 57.9313 43.25C57.4688 43.75 56.5 44 55.025 44C53.6 44 52.6313 43.75 52.1188 43.25C51.6063 42.75 50.9 42.5 50 42.5C49.05 42.5 48.3563 42.75 47.9188 43.25C47.4813 43.75 46.525 44 45.05 44C43.575 44 42.5938 43.75 42.1063 43.25C41.6188 42.75 40.925 42.5 40.025 42.5C39.125 42.5 38.4188 42.75 37.9062 43.25C37.3937 43.75 36.425 44 35 44ZM35 38V35C35.95 35 36.6563 34.75 37.1188 34.25C37.5813 33.75 38.55 33.5 40.025 33.5C41.45 33.5 42.4063 33.75 42.8938 34.25C43.3813 34.75 44.075 35 44.975 35C45.925 35 46.6312 34.75 47.0938 34.25C47.5563 33.75 48.525 33.5 50 33.5C51.425 33.5 52.3875 33.75 52.8875 34.25C53.3875 34.75 54.075 35 54.95 35C55.9 35 56.6063 34.75 57.0688 34.25C57.5313 33.75 58.5 33.5 59.975 33.5C61.4 33.5 62.3687 33.75 62.8812 34.25C63.3937 34.75 64.1 35 65 35V38C63.525 38 62.5438 37.75 62.0563 37.25C61.5688 36.75 60.875 36.5 59.975 36.5C59.075 36.5 58.3938 36.75 57.9313 37.25C57.4688 37.75 56.5 38 55.025 38C53.6 38 52.6313 37.75 52.1188 37.25C51.6063 36.75 50.9 36.5 50 36.5C49.05 36.5 48.3563 36.75 47.9188 37.25C47.4813 37.75 46.525 38 45.05 38C43.575 38 42.5938 37.75 42.1063 37.25C41.6188 36.75 40.925 36.5 40.025 36.5C39.125 36.5 38.4188 36.75 37.9062 37.25C37.3937 37.75 36.425 38 35 38Z" fill="#1C1B1F"/>
</g>
</g>
<defs>
<clipPath id="clip0_177_961">
<rect width="100" height="100" fill="white"/>
</clipPath>
</defs>
</svg>
