<svg width="100" height="100" viewBox="0 0 100 100" fill="none" xmlns="http://www.w3.org/2000/svg">
<path d="M50 90.8037L32.7666 53.3516C37.058 58.0109 43.1894 60.9131 50 60.9131C56.8247 60.9131 62.9663 57.9776 67.2588 53.293L50 90.8037ZM70.7979 45.6035L69.249 48.9668C65.3038 55.5293 58.1583 59.9131 50 59.9131C41.8846 59.9131 34.7714 55.6084 30.8135 49.1055L29.2021 45.6035H70.7979ZM50 14.5C62.4222 14.5 72.5 24.6623 72.5 37.207C72.5 39.797 72.0695 42.2851 71.2783 44.6035H28.7119C27.9272 42.2887 27.5 39.8016 27.5 37.207C27.5 24.6623 37.5778 14.5 50 14.5Z" fill="black" stroke="black"/>
<mask id="mask0_177_967" style="mask-type:alpha" maskUnits="userSpaceOnUse" x="20" y="1" width="60" height="60">
<rect x="21" y="2" width="58" height="58" fill="#D9D9D9" stroke="white" stroke-width="2"/>
</mask>
<g mask="url(#mask0_177_967)">
<path d="M49.9997 25.6247C51.486 25.6247 52.8782 25.9764 54.1579 26.6823C55.3953 27.365 56.4818 28.2606 57.4137 29.362H57.4128C58.5399 30.6517 59.5365 32.0415 60.402 33.5309C61.2026 34.9086 62.1432 36.1934 63.2243 37.3864C64.585 38.8638 65.9555 40.3605 67.3356 41.8766C68.8811 43.5745 69.6666 45.5831 69.6667 47.8581C69.6667 49.9243 68.9877 51.7465 67.6364 53.2751C66.2656 54.8255 64.5271 55.6247 62.4831 55.6247C60.3273 55.6247 58.1905 55.445 56.0739 55.0856C54.0685 54.7451 52.0437 54.5749 49.9997 54.5749C47.9556 54.5749 45.9309 54.7451 43.9254 55.0856C41.8089 55.445 39.672 55.6247 37.5163 55.6247C35.4723 55.6246 33.7337 54.8256 32.3629 53.2751C31.0116 51.7465 30.3336 49.9243 30.3336 47.8581C30.3337 45.5831 31.1192 43.5745 32.6647 41.8766C34.0465 40.3586 35.4185 38.8597 36.7809 37.3805L36.7868 37.3747C37.8624 36.2248 38.7881 34.9739 39.5661 33.6217C40.4192 32.1389 41.4346 30.7497 42.609 29.4538C43.5317 28.369 44.602 27.467 45.819 26.7536C47.1019 26.0015 48.5019 25.6247 49.9997 25.6247ZM32.4997 18.6247C34.3911 18.6247 36.028 19.2897 37.3483 20.61C38.6686 21.9303 39.3336 23.5673 39.3336 25.4587C39.3336 27.3499 38.6685 28.9871 37.3483 30.3073C36.028 31.6274 34.3909 32.2917 32.4997 32.2917C30.6084 32.2916 28.9713 31.6275 27.651 30.3073C26.3308 28.9871 25.6667 27.3499 25.6667 25.4587C25.6667 23.5674 26.3309 21.9303 27.651 20.61C28.9713 19.2898 30.6084 18.6248 32.4997 18.6247ZM67.4997 18.6247C69.3911 18.6247 71.028 19.2897 72.3483 20.61C73.6686 21.9303 74.3336 23.5673 74.3336 25.4587C74.3336 27.3499 73.6685 28.9871 72.3483 30.3073C71.028 31.6274 69.3909 32.2917 67.4997 32.2917C65.6084 32.2916 63.9713 31.6275 62.651 30.3073C61.3308 28.9871 60.6667 27.3499 60.6667 25.4587C60.6667 23.5674 61.3309 21.9303 62.651 20.61C63.9713 19.2898 65.6084 18.6248 67.4997 18.6247ZM42.9997 9.29167C44.8909 9.29167 46.528 9.95594 47.8483 11.276C49.1685 12.5963 49.8336 14.2334 49.8336 16.1247C49.8336 18.0161 49.1686 19.653 47.8483 20.9733C46.528 22.2936 44.8911 22.9587 42.9997 22.9587C41.1084 22.9586 39.4713 22.2935 38.151 20.9733C36.8309 19.653 36.1667 18.0159 36.1667 16.1247C36.1667 14.2334 36.8308 12.5963 38.151 11.276C39.4713 9.9558 41.1084 9.29174 42.9997 9.29167ZM56.9997 9.29167C58.8909 9.29167 60.528 9.95594 61.8483 11.276C63.1685 12.5963 63.8336 14.2334 63.8336 16.1247C63.8336 18.0161 63.1686 19.653 61.8483 20.9733C60.528 22.2936 58.8911 22.9587 56.9997 22.9587C55.1084 22.9586 53.4713 22.2935 52.151 20.9733C50.8309 19.6531 50.1667 18.0159 50.1667 16.1247C50.1667 14.2334 50.8308 12.5963 52.151 11.276C53.4713 9.9558 55.1084 9.29174 56.9997 9.29167Z" fill="black" stroke="white" stroke-width="2"/>
</g>
</svg>
