<svg width="100" height="100" viewBox="0 0 100 100" fill="none" xmlns="http://www.w3.org/2000/svg">
<g clip-path="url(#clip0_177_967)">
<rect width="100" height="100" fill="white"/>
<mask id="mask0_177_967" style="mask-type:alpha" maskUnits="userSpaceOnUse" x="0" y="0" width="100" height="100">
<rect width="100" height="100" fill="#D9D9D9"/>
</mask>
<g mask="url(#mask0_177_967)">
<path d="M50 91.6667C38.8195 82.1528 30.4688 73.316 24.9479 65.1563C19.4271 56.9965 16.6667 49.4444 16.6667 42.5C16.6667 32.0833 20.0174 23.7847 26.7188 17.6042C33.4202 11.4236 41.1806 8.33334 50 8.33334C58.8195 8.33334 66.5799 11.4236 73.2813 17.6042C79.9827 23.7847 83.3334 32.0833 83.3334 42.5C83.3334 49.4444 80.5729 56.9965 75.0521 65.1563C69.5313 73.316 61.1806 82.1528 50 91.6667Z" fill="#1C1B1F"/>
</g>
<circle cx="50" cy="41" r="24" fill="white"/>
<mask id="mask1_177_967" style="mask-type:alpha" maskUnits="userSpaceOnUse" x="32" y="23" width="36" height="36">
<rect x="32" y="23" width="36" height="36" fill="#D9D9D9"/>
</mask>
<g mask="url(#mask1_177_967)">
<path d="M38.75 41.1875C37.7 41.1875 36.8125 40.825 36.0875 40.1C35.3625 39.375 35 38.4875 35 37.4375C35 36.3875 35.3625 35.5 36.0875 34.775C36.8125 34.05 37.7 33.6875 38.75 33.6875C39.8 33.6875 40.6875 34.05 41.4125 34.775C42.1375 35.5 42.5 36.3875 42.5 37.4375C42.5 38.4875 42.1375 39.375 41.4125 40.1C40.6875 40.825 39.8 41.1875 38.75 41.1875ZM45.5 35.1875C44.45 35.1875 43.5625 34.825 42.8375 34.1C42.1125 33.375 41.75 32.4875 41.75 31.4375C41.75 30.3875 42.1125 29.5 42.8375 28.775C43.5625 28.05 44.45 27.6875 45.5 27.6875C46.55 27.6875 47.4375 28.05 48.1625 28.775C48.8875 29.5 49.25 30.3875 49.25 31.4375C49.25 32.4875 48.8875 33.375 48.1625 34.1C47.4375 34.825 46.55 35.1875 45.5 35.1875ZM54.5 35.1875C53.45 35.1875 52.5625 34.825 51.8375 34.1C51.1125 33.375 50.75 32.4875 50.75 31.4375C50.75 30.3875 51.1125 29.5 51.8375 28.775C52.5625 28.05 53.45 27.6875 54.5 27.6875C55.55 27.6875 56.4375 28.05 57.1625 28.775C57.8875 29.5 58.25 30.3875 58.25 31.4375C58.25 32.4875 57.8875 33.375 57.1625 34.1C56.4375 34.825 55.55 35.1875 54.5 35.1875ZM61.25 41.1875C60.2 41.1875 59.3125 40.825 58.5875 40.1C57.8625 39.375 57.5 38.4875 57.5 37.4375C57.5 36.3875 57.8625 35.5 58.5875 34.775C59.3125 34.05 60.2 33.6875 61.25 33.6875C62.3 33.6875 63.1875 34.05 63.9125 34.775C64.6375 35.5 65 36.3875 65 37.4375C65 38.4875 64.6375 39.375 63.9125 40.1C63.1875 40.825 62.3 41.1875 61.25 41.1875ZM41.975 56.1875C40.85 56.1875 39.9063 55.7563 39.1438 54.8938C38.3812 54.0313 38 53.0125 38 51.8375C38 50.5375 38.4438 49.4 39.3313 48.425C40.2188 47.45 41.1 46.4875 41.975 45.5375C42.7 44.7625 43.325 43.9188 43.85 43.0063C44.375 42.0938 45 41.2375 45.725 40.4375C46.275 39.7875 46.9125 39.25 47.6375 38.825C48.3625 38.4 49.15 38.1875 50 38.1875C50.85 38.1875 51.6375 38.3875 52.3625 38.7875C53.0875 39.1875 53.725 39.7125 54.275 40.3625C54.975 41.1625 55.5938 42.025 56.1313 42.95C56.6688 43.875 57.3 44.7375 58.025 45.5375C58.9 46.4875 59.7813 47.45 60.6688 48.425C61.5563 49.4 62 50.5375 62 51.8375C62 53.0125 61.6188 54.0313 60.8563 54.8938C60.0938 55.7563 59.15 56.1875 58.025 56.1875C56.675 56.1875 55.3375 56.075 54.0125 55.85C52.6875 55.625 51.35 55.5125 50 55.5125C48.65 55.5125 47.3125 55.625 45.9875 55.85C44.6625 56.075 43.325 56.1875 41.975 56.1875Z" fill="#1C1B1F"/>
</g>
</g>
<defs>
<clipPath id="clip0_177_967">
<rect width="100" height="100" fill="white"/>
</clipPath>
</defs>
</svg>
