<svg width="100" height="100" viewBox="0 0 100 100" fill="none" xmlns="http://www.w3.org/2000/svg">
<g clip-path="url(#clip0_177_969)">
<rect width="100" height="100" fill="white"/>
<mask id="mask0_177_969" style="mask-type:alpha" maskUnits="userSpaceOnUse" x="0" y="0" width="100" height="100">
<rect width="100" height="100" fill="#D9D9D9"/>
</mask>
<g mask="url(#mask0_177_969)">
<path d="M50 91.6667C38.8195 82.1528 30.4688 73.316 24.9479 65.1563C19.4271 56.9965 16.6667 49.4444 16.6667 42.5C16.6667 32.0833 20.0174 23.7847 26.7188 17.6042C33.4202 11.4236 41.1806 8.33334 50 8.33334C58.8195 8.33334 66.5799 11.4236 73.2813 17.6042C79.9826 23.7847 83.3333 32.0833 83.3333 42.5C83.3333 49.4444 80.5729 56.9965 75.0521 65.1563C69.5313 73.316 61.1806 82.1528 50 91.6667Z" fill="#1C1B1F"/>
</g>
<circle cx="50" cy="41" r="24" fill="white"/>
<mask id="mask1_177_969" style="mask-type:alpha" maskUnits="userSpaceOnUse" x="32" y="23" width="36" height="36">
<rect x="32" y="23" width="36" height="36" fill="#D9D9D9"/>
</mask>
<g mask="url(#mask1_177_969)">
<path d="M36.5 48.5H42.65C42.225 48.075 41.8313 47.6125 41.4688 47.1125C41.1062 46.6125 40.7875 46.075 40.5125 45.5H36.5V48.5ZM50 48.5C52.075 48.5 53.8438 47.7688 55.3063 46.3063C56.7688 44.8438 57.5 43.075 57.5 41C57.5 38.925 56.7688 37.1563 55.3063 35.6938C53.8438 34.2313 52.075 33.5 50 33.5C47.925 33.5 46.1563 34.2313 44.6938 35.6938C43.2313 37.1563 42.5 38.925 42.5 41C42.5 43.075 43.2313 44.8438 44.6938 46.3063C46.1563 47.7688 47.925 48.5 50 48.5ZM59.4875 36.5H63.5V33.5H57.35C57.775 33.925 58.1687 34.3875 58.5312 34.8875C58.8938 35.3875 59.2125 35.925 59.4875 36.5ZM33.5 53V41H36.5V42.5H39.6125C39.5625 42.25 39.5313 42.0062 39.5188 41.7687C39.5063 41.5312 39.5 41.275 39.5 41C39.5 38.075 40.5187 35.5938 42.5562 33.5563C44.5937 31.5188 47.075 30.5 50 30.5H63.5V29H66.5V41H63.5V39.5H60.3875C60.4375 39.75 60.4688 39.9938 60.4813 40.2313C60.4938 40.4688 60.5 40.725 60.5 41C60.5 43.925 59.4813 46.4063 57.4438 48.4438C55.4063 50.4813 52.925 51.5 50 51.5H36.5V53H33.5Z" fill="#1C1B1F"/>
<path d="M53.5 27.5L48.5 32.5L50.2321 35.5L47.2321 38.5L48.5 40.6962L56.3038 48.5L51.5 53.3038" stroke="white" stroke-width="2"/>
</g>
<mask id="mask2_177_969" style="mask-type:alpha" maskUnits="userSpaceOnUse" x="44" y="35" width="12" height="12">
<rect x="44" y="35" width="12" height="12" fill="#D9D9D9"/>
</mask>
<g mask="url(#mask2_177_969)">
<path d="M50 45.75C48.8917 45.75 47.9479 45.3667 47.1688 44.6C46.3896 43.8333 46 42.9 46 41.8C46 41.275 46.1021 40.7729 46.3063 40.2938C46.5104 39.8146 46.8 39.3917 47.175 39.025L50 36.25L52.825 39.025C53.2 39.3917 53.4896 39.8146 53.6937 40.2938C53.8979 40.7729 54 41.275 54 41.8C54 42.9 53.6104 43.8333 52.8313 44.6C52.0521 45.3667 51.1083 45.75 50 45.75Z" fill="#1C1B1F"/>
</g>
</g>
<defs>
<clipPath id="clip0_177_969">
<rect width="100" height="100" fill="white"/>
</clipPath>
</defs>
</svg>
