<svg width="100" height="100" viewBox="0 0 100 100" fill="none" xmlns="http://www.w3.org/2000/svg">
<path d="M50 90.8037L32.7666 53.3516C37.058 58.0109 43.1894 60.9131 50 60.9131C56.8247 60.9131 62.9663 57.9776 67.2588 53.293L50 90.8037ZM70.7979 45.6035L69.249 48.9668C65.3038 55.5293 58.1583 59.9131 50 59.9131C41.8846 59.9131 34.7714 55.6084 30.8135 49.1055L29.2021 45.6035H70.7979ZM50 14.5C62.4222 14.5 72.5 24.6623 72.5 37.207C72.5 39.797 72.0695 42.2851 71.2783 44.6035H28.7119C27.9272 42.2887 27.5 39.8016 27.5 37.207C27.5 24.6623 37.5778 14.5 50 14.5Z" fill="black" stroke="black"/>
<path d="M38.2201 47.2971C38.3348 46.9843 38.5655 46.445 38.7298 45.957C38.7719 45.8322 39.4121 45.6751 39.5039 45.7695L40.1091 46.3918C40.6675 47.0636 40.6478 47.9029 41.063 48.3073C41.5536 48.7851 41.9136 49.2568 42.3908 49.7443C42.9541 50.3199 43.7628 50.8828 44.3958 51.0362C45.1876 51.2281 46.0925 51.7549 47.0521 51.874C48.0305 51.9954 48.7899 52.1728 49.918 52.4021C51.6784 52.7599 53.5648 52.9058 53.5241 53.2176C53.4772 53.5762 53.1977 54.0072 52.7539 54.5102C52.3102 55.0132 51.8069 55.5067 51.1927 55.7547C50.5379 56.0191 49.9022 56.6248 49.1193 56.8806C48.5364 57.071 47.7811 57.0657 47.4903 57.5761C47.4211 57.6976 47.3872 57.9113 47.4924 58.0309C47.702 58.2695 47.9493 58.5357 48.2855 58.6532C49.1039 58.9391 49.946 58.8134 54.9567 59.1073C56.1818 59.1791 56.872 59.1139 56.9498 59.5664C57.0651 60.2368 56.9701 60.8101 56.7842 61.0968C56.5983 61.3835 56.3332 61.6985 55.9679 61.9346C55.3376 62.342 54.7741 62.7836 54.1279 63.0598C53.5681 63.2991 53.0238 63.6194 52.2172 63.9457C51.5638 64.2101 50.9282 64.5775 50.2374 64.6635C49.6546 64.7361 48.7244 64.9202 45.6516 64.9509C43.2783 64.9746 38.8472 65.0611 36.5653 64.9258C34.1417 64.7821 33.6637 64.7563 33.1151 64.6628C32.4155 64.5435 31.7806 64.3118 30.9207 64.2798C28.9688 64.2073 28.4323 63.9205 27.8039 63.8243C26.8695 63.6813 26.0195 63.5601 25.3586 63.3695C24.7758 63.2014 24.0103 63.2017 23.4948 62.7451C22.819 62.1466 22.2697 61.7223 21.6778 61.6206C20.2892 61.3821 18.1178 61.3424 17.6721 60.7814C17.4631 60.5184 17.0532 60.317 17.0207 59.7209C16.9515 58.452 17.0522 57.4424 17.3729 57.237C17.9327 56.8784 18.4222 56.419 19.0502 56.2562C19.6099 56.1111 20.1738 55.8945 21.3109 55.7533C22.2711 55.634 23.7069 55.7855 23.8945 55.177C24.0797 54.5763 24.2554 53.894 24.8044 53.4282C25.4802 52.8548 25.9739 52.4295 26.5977 52.2081C27.205 51.9926 27.8156 51.7319 28.4622 51.6577C29.3015 51.5615 29.9392 51.315 30.6517 51.1785C31.398 51.0355 32.0793 51.1633 33.308 50.8674C34.0061 50.6992 35.1935 50.7702 35.9622 50.34C36.5219 50.0267 37.0958 49.5583 37.3584 49.0215C37.6401 48.446 38.0184 47.8471 38.2201 47.2971Z" fill="black" stroke="white" stroke-width="2" stroke-linecap="round"/>
<path d="M32.1659 24.4623L68.8567 3.55623L82.3385 27.8727L45.6478 48.7787L32.1659 24.4623Z" fill="black"/>
<path d="M31 23.3863L46.157 50M41.9596 17.5033L57.1166 44.117M57.1166 9.22962L72.2735 35.8433M67.843 2L83 28.6137M32.1659 24.4623L68.8567 3.55623L82.3385 27.8727L45.6478 48.7787L32.1659 24.4623Z" stroke="white" stroke-width="2" stroke-linecap="round"/>
<mask id="mask0_177_969" style="mask-type:alpha" maskUnits="userSpaceOnUse" x="46" y="16" width="22" height="22">
<rect x="53.7149" y="36.3629" width="14.4728" height="14.4728" transform="rotate(-119.083 53.7149 36.3629)" fill="#D9D9D9" stroke="white"/>
</mask>
<g mask="url(#mask0_177_969)">
<path d="M53.007 24.7085L53.0079 24.7081C53.1688 24.1188 53.4345 23.5868 53.8058 23.1088C54.1761 22.6321 54.6257 22.246 55.1589 21.9494C56.282 21.3248 57.4397 21.1948 58.6624 21.5541C59.8868 21.914 60.805 22.6518 61.4368 23.7879C62.0686 24.9238 62.2108 26.0925 61.8708 27.3224C61.5312 28.5507 60.8101 29.4656 59.6869 30.0903C59.1538 30.3869 58.5889 30.5661 57.9887 30.6293C57.3868 30.6926 56.7946 30.6377 56.2092 30.4636L56.2078 30.4632L51.7811 29.1585L53.007 24.7085Z" fill="black" stroke="white"/>
</g>
<path d="M38.799 42.6694L40.5074 41.6831L42.9508 45.9151L41.2424 46.9014C40.0737 47.5761 38.5794 47.1758 37.9047 46.0071C37.2723 44.9115 37.5846 43.5299 38.5889 42.8054L38.799 42.6694Z" fill="black" stroke="white"/>
</svg>
