<svg width="100" height="100" viewBox="0 0 100 100" fill="none" xmlns="http://www.w3.org/2000/svg">
<path d="M50 90.8037L32.7666 53.3516C37.058 58.0109 43.1894 60.9131 50 60.9131C56.8247 60.9131 62.9663 57.9776 67.2588 53.293L50 90.8037ZM70.7979 45.6035L69.249 48.9668C65.3038 55.5293 58.1583 59.9131 50 59.9131C41.8846 59.9131 34.7714 55.6084 30.8135 49.1055L29.2021 45.6035H70.7979ZM50 14.5C62.4222 14.5 72.5 24.6623 72.5 37.207C72.5 39.797 72.0695 42.2851 71.2783 44.6035H28.7119C27.9272 42.2887 27.5 39.8016 27.5 37.207C27.5 24.6623 37.5778 14.5 50 14.5Z" fill="black" stroke="black"/>
<rect x="35.5" y="20.5" width="29" height="29" fill="black" stroke="white"/>
<rect x="64.5" y="25.5" width="14" height="19" fill="black" stroke="white"/>
<rect x="21.5" y="25.5" width="14" height="19" fill="black" stroke="white"/>
<rect x="48.5" y="9.5" width="2" height="9" fill="black" stroke="white"/>
<path d="M49.5 12.5C51.1569 12.5 52.5 13.8431 52.5 15.5V20.5H46.5V15.5C46.5 13.8431 47.8431 12.5 49.5 12.5Z" fill="black" stroke="white"/>
<rect x="28.5" y="5.5" width="42" height="4" fill="black" stroke="white"/>
<rect x="16.4076" y="5.26782" width="5" height="82" transform="rotate(-50.5375 16.4076 5.26782)" fill="black" stroke="white" stroke-width="2"/>
</svg>
