<svg width="100" height="100" viewBox="0 0 100 100" fill="none" xmlns="http://www.w3.org/2000/svg">
<g clip-path="url(#clip0_177_964)">
<rect width="100" height="100" fill="white"/>
<mask id="mask0_177_964" style="mask-type:alpha" maskUnits="userSpaceOnUse" x="0" y="0" width="100" height="100">
<rect width="100" height="100" fill="#D9D9D9"/>
</mask>
<g mask="url(#mask0_177_964)">
<path d="M50 91.6667C38.8195 82.1528 30.4688 73.316 24.9479 65.1563C19.4271 56.9965 16.6667 49.4445 16.6667 42.5C16.6667 32.0833 20.0174 23.7847 26.7188 17.6042C33.4202 11.4236 41.1806 8.33334 50 8.33334C58.8195 8.33334 66.5799 11.4236 73.2813 17.6042C79.9827 23.7847 83.3333 32.0833 83.3333 42.5C83.3333 49.4445 80.5729 56.9965 75.0521 65.1563C69.5313 73.316 61.1806 82.1528 50 91.6667Z" fill="#1C1B1F"/>
</g>
<circle cx="50" cy="41" r="24" fill="white"/>
<mask id="mask1_177_964" style="mask-type:alpha" maskUnits="userSpaceOnUse" x="32" y="23" width="36" height="36">
<rect x="32" y="23" width="36" height="36" fill="#D9D9D9"/>
</mask>
<g mask="url(#mask1_177_964)">
<path d="M35 54.5V51.5H38V27.5H62V51.5H65V54.5H35ZM41 51.5H43.25V30.5H41V51.5ZM46.25 51.5H48.5V30.5H46.25V51.5ZM51.5 51.5H53.75V30.5H51.5V51.5ZM56.75 51.5H59V30.5H56.75V51.5Z" fill="#1C1B1F"/>
</g>
</g>
<defs>
<clipPath id="clip0_177_964">
<rect width="100" height="100" fill="white"/>
</clipPath>
</defs>
</svg>
