<svg width="100" height="100" viewBox="0 0 100 100" fill="none" xmlns="http://www.w3.org/2000/svg">
<g clip-path="url(#clip0_177_970)">
<rect width="100" height="100" fill="white"/>
<mask id="mask0_177_970" style="mask-type:alpha" maskUnits="userSpaceOnUse" x="0" y="0" width="100" height="100">
<rect width="100" height="100" fill="#D9D9D9"/>
</mask>
<g mask="url(#mask0_177_970)">
<path d="M50 91.6667C38.8195 82.1528 30.4688 73.316 24.9479 65.1563C19.4271 56.9965 16.6667 49.4444 16.6667 42.5C16.6667 32.0833 20.0174 23.7847 26.7188 17.6042C33.4202 11.4236 41.1806 8.33334 50 8.33334C58.8195 8.33334 66.5799 11.4236 73.2813 17.6042C79.9827 23.7847 83.3333 32.0833 83.3333 42.5C83.3333 49.4444 80.5729 56.9965 75.0521 65.1563C69.5313 73.316 61.1806 82.1528 50 91.6667Z" fill="#1C1B1F"/>
</g>
<circle cx="50" cy="41" r="24" fill="white"/>
<mask id="mask1_177_970" style="mask-type:alpha" maskUnits="userSpaceOnUse" x="32" y="23" width="36" height="36">
<rect x="32" y="23" width="36" height="36" fill="#D9D9D9"/>
</mask>
<g mask="url(#mask1_177_970)">
<path d="M39.5 56C38.675 56 37.9688 55.7063 37.3813 55.1188C36.7938 54.5313 36.5 53.825 36.5 53V47C36.5 46.175 36.7938 45.4688 37.3813 44.8813C37.9688 44.2938 38.675 44 39.5 44H60.5C61.325 44 62.0313 44.2938 62.6188 44.8813C63.2063 45.4688 63.5 46.175 63.5 47V53C63.5 53.825 63.2063 54.5313 62.6188 55.1188C62.0313 55.7063 61.325 56 60.5 56H39.5ZM39.5 53H60.5V47H39.5V53ZM41.7875 41.75L34.25 37.475L43.25 35.975L40.8125 27.1625L48.275 32.45L52.775 24.5L54.275 33.5L63.0875 31.0625L57.8 38.525L63.5 41.75H57.425L53.45 39.5L55.775 36.2L51.875 37.2875L51.2 33.3125L49.25 36.8L45.95 34.475L47.0375 38.375L43.0625 39.05L47.5625 41.75H41.7875Z" fill="#1C1B1F"/>
</g>
</g>
<defs>
<clipPath id="clip0_177_970">
<rect width="100" height="100" fill="white"/>
</clipPath>
</defs>
</svg>
