<svg width="100" height="100" viewBox="0 0 100 100" fill="none" xmlns="http://www.w3.org/2000/svg">
<path d="M50 90.8037L32.7666 53.3516C37.058 58.0109 43.1894 60.9131 50 60.9131C56.8247 60.9131 62.9663 57.9776 67.2588 53.293L50 90.8037ZM70.7979 45.6035L69.249 48.9668C65.3038 55.5293 58.1583 59.9131 50 59.9131C41.8846 59.9131 34.7714 55.6084 30.8135 49.1055L29.2021 45.6035H70.7979ZM50 14.5C62.4222 14.5 72.5 24.6623 72.5 37.207C72.5 39.797 72.0695 42.2851 71.2783 44.6035H28.7119C27.9272 42.2887 27.5 39.8016 27.5 37.207C27.5 24.6623 37.5778 14.5 50 14.5Z" fill="black" stroke="black"/>
<mask id="mask0_177_970" style="mask-type:alpha" maskUnits="userSpaceOnUse" x="19" y="0" width="62" height="62">
<rect x="19.5" y="0.5" width="60.5" height="60.5" fill="#D9D9D9" stroke="white"/>
</mask>
<g mask="url(#mask0_177_970)">
<path d="M67.6875 34.875C69.3642 34.875 70.824 35.4841 72.0137 36.6738C73.2034 37.8635 73.8125 39.3233 73.8125 41V51.25C73.8125 52.9267 73.2034 54.3865 72.0137 55.5762C70.824 56.7659 69.3642 57.375 67.6875 57.375H31.8125C30.1358 57.375 28.676 56.7659 27.4863 55.5762C26.2966 54.3865 25.6875 52.9267 25.6875 51.25V41C25.6875 39.3233 26.2966 37.8635 27.4863 36.6738C28.676 35.4841 30.1358 34.875 31.8125 34.875H67.6875ZM55.4766 2.39844L57.8555 16.6768L71.8408 12.8096L74.5469 12.0615L72.9238 14.3516L64.5303 26.1963L73.3047 31.1611L76.6104 33.0312H35.4561L35.2266 32.9014L22.3506 25.5977L19.8955 24.2061L22.6797 23.7422L36.958 21.3623L33.0908 7.37793L32.3428 4.67187L34.6328 6.29492L46.4775 14.6875L53.6201 2.07031L55.0127 -0.38965L55.4766 2.39844Z" fill="black" stroke="white" stroke-width="2"/>
</g>
</svg>
