<svg width="100" height="100" viewBox="0 0 100 100" fill="none" xmlns="http://www.w3.org/2000/svg">
<g clip-path="url(#clip0_177_968)">
<rect width="100" height="100" fill="white"/>
<mask id="mask0_177_968" style="mask-type:alpha" maskUnits="userSpaceOnUse" x="0" y="0" width="100" height="100">
<rect width="100" height="100" fill="#D9D9D9"/>
</mask>
<g mask="url(#mask0_177_968)">
<path d="M50 91.6667C38.8194 82.1528 30.4688 73.316 24.9479 65.1563C19.4271 56.9965 16.6667 49.4444 16.6667 42.5C16.6667 32.0833 20.0174 23.7847 26.7188 17.6042C33.4201 11.4236 41.1806 8.33334 50 8.33334C58.8194 8.33334 66.5799 11.4236 73.2813 17.6042C79.9826 23.7847 83.3333 32.0833 83.3333 42.5C83.3333 49.4444 80.5729 56.9965 75.0521 65.1563C69.5313 73.316 61.1806 82.1528 50 91.6667Z" fill="#1C1B1F"/>
</g>
<circle cx="50" cy="41" r="24" fill="white"/>
<mask id="mask1_177_968" style="mask-type:alpha" maskUnits="userSpaceOnUse" x="30" y="30" width="22" height="22">
<rect x="30" y="30" width="22" height="22" fill="#D9D9D9"/>
</mask>
<g mask="url(#mask1_177_968)">
<path d="M48.1271 50.7396L31.2604 33.8729L32.5667 32.5667L49.4333 49.4333L48.1271 50.7396ZM47.6458 45.0104L46.2479 43.6125C46.3243 43.3375 46.3854 43.0587 46.4313 42.776C46.4771 42.4934 46.5 42.2069 46.5 41.9167C46.5 41.1528 46.3587 40.4309 46.076 39.751C45.7934 39.0712 45.3847 38.4639 44.85 37.9292C44.5444 38.1278 44.2236 38.2767 43.8875 38.376C43.5514 38.4753 43.2076 38.525 42.8563 38.525C41.909 38.525 41.0879 38.2118 40.3927 37.5854C39.6976 36.959 39.2965 36.1875 39.1896 35.2708C39.0674 35.3625 38.9528 35.458 38.8458 35.5573C38.7389 35.6566 38.6243 35.7597 38.5021 35.8667L37.1958 34.5604C37.7306 34.041 38.3149 33.5559 38.949 33.1052C39.583 32.6545 40.2667 32.2306 41 31.8333V34.8583C41 35.3778 41.1795 35.8132 41.5385 36.1646C41.8976 36.516 42.3368 36.6917 42.8563 36.6917C43.1313 36.6917 43.3872 36.6306 43.624 36.5083C43.8608 36.3861 44.0708 36.2181 44.2542 36.0042L44.6667 35.5C45.7972 36.1417 46.691 37.0354 47.3479 38.1812C48.0049 39.3271 48.3333 40.5722 48.3333 41.9167C48.3333 42.4667 48.276 43.0014 48.1615 43.5208C48.0469 44.0403 47.875 44.5368 47.6458 45.0104ZM41 49.25C38.9528 49.25 37.2188 48.5396 35.7979 47.1188C34.3771 45.6979 33.6667 43.9639 33.6667 41.9167C33.6667 40.8625 33.8615 39.8351 34.251 38.8344C34.6406 37.8337 35.2021 36.875 35.9354 35.9583L37.2417 37.2646C36.6611 38.0285 36.2257 38.8 35.9354 39.5792C35.6451 40.3583 35.5 41.1375 35.5 41.9167C35.5 42.7111 35.6604 43.4635 35.9813 44.174C36.3021 44.8844 36.7604 45.5069 37.3563 46.0417C37.341 45.9653 37.3333 45.8965 37.3333 45.8354V45.6292C37.3333 45.1403 37.425 44.6819 37.6083 44.2542C37.7917 43.8264 38.059 43.4368 38.4104 43.0854L40.7708 40.7938L42.0771 42.1L39.6938 44.3917C39.5257 44.5597 39.3958 44.7507 39.3042 44.9646C39.2125 45.1785 39.1667 45.4 39.1667 45.6292C39.1667 46.1181 39.3462 46.5382 39.7052 46.8896C40.0642 47.241 40.4958 47.4167 41 47.4167C41.5042 47.4167 41.9358 47.241 42.2948 46.8896C42.6538 46.5382 42.8333 46.1181 42.8333 45.6292C42.8333 45.3847 42.7837 45.1632 42.6844 44.9646C42.5851 44.766 42.4514 44.5826 42.2833 44.4146L43.3375 43.3604L46.6146 46.6375C45.9271 47.4472 45.1059 48.0851 44.151 48.551C43.1962 49.017 42.1458 49.25 41 49.25Z" fill="#1C1B1F"/>
</g>
<mask id="mask2_177_968" style="mask-type:alpha" maskUnits="userSpaceOnUse" x="48" y="30" width="22" height="22">
<rect x="48" y="30" width="22" height="22" fill="#D9D9D9"/>
</mask>
<g mask="url(#mask2_177_968)">
<path d="M59 50.1667C58.4958 50.1667 58.0642 49.9872 57.7052 49.6281C57.3462 49.2691 57.1667 48.8375 57.1667 48.3333H60.8333C60.8333 48.8375 60.6538 49.2691 60.2948 49.6281C59.9358 49.9872 59.5042 50.1667 59 50.1667ZM59 33.6667C58.3278 33.6667 57.7052 33.7851 57.1323 34.0219C56.5594 34.2587 56.0514 34.5833 55.6083 34.9958L54.2792 33.7125C54.9056 33.1319 55.6198 32.6736 56.4219 32.3375C57.224 32.0014 58.0833 31.8333 59 31.8333C60.9097 31.8333 62.533 32.5017 63.8698 33.8385C65.2066 35.1753 65.875 36.7986 65.875 38.7083C65.875 39.7931 65.684 40.7212 65.3021 41.4927C64.9201 42.2642 64.4847 42.8944 63.9958 43.3833L62.7125 42.1C63.0333 41.7486 63.3351 41.2979 63.6177 40.7479C63.9003 40.1979 64.0417 39.5181 64.0417 38.7083C64.0417 37.3028 63.5528 36.1111 62.575 35.1333C61.5972 34.1556 60.4056 33.6667 59 33.6667ZM67.4333 49.4333L66.1271 50.7396L60.0542 44.6667H55.5625C54.5083 44.0403 53.6719 43.2 53.0531 42.1458C52.4344 41.0917 52.125 39.9458 52.125 38.7083C52.125 38.4028 52.1441 38.1049 52.1823 37.8146C52.2205 37.5243 52.2778 37.2417 52.3542 36.9667L49.2833 33.85L50.5667 32.5667L67.4333 49.4333ZM56.1125 42.8333H58.2208L53.9583 38.5708V38.7083C53.9583 39.5333 54.1455 40.3049 54.5198 41.0229C54.8941 41.741 55.425 42.3444 56.1125 42.8333ZM62.8042 45.5833V47.4167H55.3333V45.5833H62.8042Z" fill="#1C1B1F"/>
</g>
</g>
<defs>
<clipPath id="clip0_177_968">
<rect width="100" height="100" fill="white"/>
</clipPath>
</defs>
</svg>
