<svg width="100" height="100" viewBox="0 0 100 100" fill="none" xmlns="http://www.w3.org/2000/svg">
<g clip-path="url(#clip0_177_966)">
<rect width="100" height="100" fill="white"/>
<mask id="mask0_177_966" style="mask-type:alpha" maskUnits="userSpaceOnUse" x="0" y="0" width="100" height="100">
<rect width="100" height="100" fill="#D9D9D9"/>
</mask>
<g mask="url(#mask0_177_966)">
<path d="M50 91.6667C38.8195 82.1528 30.4688 73.316 24.9479 65.1563C19.4271 56.9965 16.6667 49.4445 16.6667 42.5C16.6667 32.0833 20.0174 23.7847 26.7188 17.6042C33.4202 11.4236 41.1806 8.33334 50 8.33334C58.8195 8.33334 66.5799 11.4236 73.2813 17.6042C79.9827 23.7847 83.3334 32.0833 83.3334 42.5C83.3334 49.4445 80.5729 56.9965 75.0521 65.1563C69.5313 73.316 61.1806 82.1528 50 91.6667Z" fill="#1C1B1F"/>
</g>
<circle cx="50" cy="41" r="24" fill="white"/>
<mask id="mask1_177_966" style="mask-type:alpha" maskUnits="userSpaceOnUse" x="32" y="23" width="36" height="36">
<rect x="32" y="23" width="36" height="36" fill="#D9D9D9"/>
</mask>
<g mask="url(#mask1_177_966)">
<path d="M50 41C48.35 41 46.9375 40.4125 45.7625 39.2375C44.5875 38.0625 44 36.65 44 35C44 33.35 44.5875 31.9375 45.7625 30.7625C46.9375 29.5875 48.35 29 50 29C51.65 29 53.0625 29.5875 54.2375 30.7625C55.4125 31.9375 56 33.35 56 35C56 36.65 55.4125 38.0625 54.2375 39.2375C53.0625 40.4125 51.65 41 50 41ZM38 53V48.8C38 47.95 38.2187 47.1687 38.6562 46.4562C39.0938 45.7437 39.675 45.2 40.4 44.825C41.95 44.05 43.525 43.4687 45.125 43.0812C46.725 42.6937 48.35 42.5 50 42.5C51.65 42.5 53.275 42.6937 54.875 43.0812C56.475 43.4687 58.05 44.05 59.6 44.825C60.325 45.2 60.9062 45.7437 61.3438 46.4562C61.7813 47.1687 62 47.95 62 48.8V53H38Z" fill="#1C1B1F"/>
</g>
</g>
<defs>
<clipPath id="clip0_177_966">
<rect width="100" height="100" fill="white"/>
</clipPath>
</defs>
</svg>
