<svg width="100" height="100" viewBox="0 0 100 100" fill="none" xmlns="http://www.w3.org/2000/svg">
<g clip-path="url(#clip0_177_966)">
<path d="M50 90.8037L32.7666 53.3516C37.058 58.0109 43.1894 60.9131 50 60.9131C56.8247 60.9131 62.9663 57.9776 67.2588 53.293L50 90.8037ZM70.7979 45.6035L69.249 48.9668C65.3038 55.5293 58.1583 59.9131 50 59.9131C41.8846 59.9131 34.7714 55.6084 30.8135 49.1055L29.2021 45.6035H70.7979ZM50 14.5C62.4222 14.5 72.5 24.6623 72.5 37.207C72.5 39.797 72.0695 42.2851 71.2783 44.6035H28.7119C27.9272 42.2887 27.5 39.8016 27.5 37.207C27.5 24.6623 37.5778 14.5 50 14.5Z" fill="black" stroke="black"/>
<mask id="mask0_177_966" style="mask-type:alpha" maskUnits="userSpaceOnUse" x="15" y="-8" width="70" height="70">
<rect x="15" y="-8" width="70" height="70" fill="#D9D9D9"/>
</mask>
<g mask="url(#mask0_177_966)">
<path d="M49.9997 28.9167C53.2871 28.9167 56.5262 29.3027 59.7145 30.0749C62.7034 30.7987 65.6439 31.8615 68.5358 33.2594L69.1139 33.5426L69.1256 33.5495C70.7011 34.3644 71.9663 35.55 72.9098 37.0866C73.8587 38.632 74.3336 40.3326 74.3336 42.1667V51.3337H25.6667V42.1667C25.6667 40.3326 26.1416 38.6321 27.0905 37.0866C27.9749 35.6462 29.1414 34.514 30.5817 33.7067L30.8864 33.5426C33.9641 32.0038 37.0978 30.847 40.2858 30.0749C43.4739 29.3028 46.7125 28.9167 49.9997 28.9167ZM49.9997 2.66667C53.4753 2.66667 56.4762 3.91564 58.9469 6.3864C61.4177 8.85716 62.6667 11.858 62.6667 15.3337C62.6666 18.8091 61.4175 21.8093 58.9469 24.28C56.4762 26.7507 53.4753 27.9997 49.9997 27.9997C46.5241 27.9996 43.5241 26.7506 41.0534 24.28C38.5827 21.8093 37.3337 18.8092 37.3336 15.3337C37.3336 11.858 38.5826 8.85716 41.0534 6.3864C43.524 3.91582 46.5242 2.66675 49.9997 2.66667Z" fill="black" stroke="white" stroke-width="2"/>
</g>
</g>
<defs>
<clipPath id="clip0_177_966">
<rect width="100" height="100" fill="white"/>
</clipPath>
</defs>
</svg>
