<svg width="100" height="100" viewBox="0 0 100 100" fill="none" xmlns="http://www.w3.org/2000/svg">
<g clip-path="url(#clip0_177_971)">
<rect width="100" height="100" fill="white"/>
<mask id="mask0_177_971" style="mask-type:alpha" maskUnits="userSpaceOnUse" x="0" y="0" width="100" height="100">
<rect width="100" height="100" fill="#D9D9D9"/>
</mask>
<g mask="url(#mask0_177_971)">
<path d="M50 91.6667C38.8194 82.1528 30.4688 73.316 24.9479 65.1563C19.4271 56.9965 16.6667 49.4444 16.6667 42.5C16.6667 32.0833 20.0174 23.7847 26.7188 17.6042C33.4201 11.4236 41.1806 8.33334 50 8.33334C58.8194 8.33334 66.5799 11.4236 73.2813 17.6042C79.9826 23.7847 83.3333 32.0833 83.3333 42.5C83.3333 49.4444 80.5729 56.9965 75.0521 65.1563C69.5313 73.316 61.1806 82.1528 50 91.6667Z" fill="#1C1B1F"/>
</g>
<circle cx="50" cy="41" r="24" fill="white"/>
<mask id="mask1_177_971" style="mask-type:alpha" maskUnits="userSpaceOnUse" x="32" y="23" width="36" height="36">
<rect x="32" y="23" width="36" height="36" fill="#D9D9D9"/>
</mask>
<g mask="url(#mask1_177_971)">
<path d="M48.875 56C48.575 56 48.3125 55.8875 48.0875 55.6625C47.8625 55.4375 47.75 55.175 47.75 54.875C47.75 54.575 47.8625 54.3125 48.0875 54.0875C48.3125 53.8625 48.575 53.75 48.875 53.75V51.425C47.825 51.3 46.8375 51.05 45.9125 50.675C44.9875 50.3 44.15 49.8 43.4 49.175L41.7875 50.825C42.0125 51.05 42.125 51.3125 42.125 51.6125C42.125 51.9125 42.0125 52.175 41.7875 52.4C41.5625 52.625 41.3 52.7375 41 52.7375C40.7 52.7375 40.4375 52.625 40.2125 52.4L38.6 50.825C38.375 50.6 38.2625 50.3313 38.2625 50.0188C38.2625 49.7063 38.375 49.4375 38.6 49.2125C38.825 48.9875 39.0875 48.8812 39.3875 48.8937C39.6875 48.9062 39.95 49.0125 40.175 49.2125L41.825 47.5625C41.2 46.7875 40.7 45.95 40.325 45.05C39.95 44.15 39.7 43.175 39.575 42.125H37.25C37.25 42.425 37.1375 42.6875 36.9125 42.9125C36.6875 43.1375 36.425 43.25 36.125 43.25C35.825 43.25 35.5625 43.1375 35.3375 42.9125C35.1125 42.6875 35 42.425 35 42.125V39.875C35 39.575 35.1125 39.3125 35.3375 39.0875C35.5625 38.8625 35.825 38.75 36.125 38.75C36.425 38.75 36.6875 38.8625 36.9125 39.0875C37.1375 39.3125 37.25 39.575 37.25 39.875H39.575C39.7 38.825 39.9563 37.85 40.3438 36.95C40.7312 36.05 41.225 35.2125 41.825 34.4375L40.175 32.7875C39.95 32.9875 39.6875 33.0938 39.3875 33.1063C39.0875 33.1188 38.825 33.0125 38.6 32.7875C38.375 32.5625 38.2625 32.2937 38.2625 31.9812C38.2625 31.6687 38.375 31.4 38.6 31.175L40.175 29.6C40.4 29.375 40.6687 29.2625 40.9812 29.2625C41.2937 29.2625 41.5625 29.375 41.7875 29.6C42.0125 29.825 42.125 30.0937 42.125 30.4062C42.125 30.7187 42.0125 30.9875 41.7875 31.2125L43.4 32.825C44.175 32.2 45.0125 31.7 45.9125 31.325C46.8125 30.95 47.7875 30.7 48.8375 30.575V28.25C48.5375 28.25 48.2813 28.1375 48.0688 27.9125C47.8563 27.6875 47.75 27.425 47.75 27.125C47.75 26.825 47.8625 26.5625 48.0875 26.3375C48.3125 26.1125 48.575 26 48.875 26H51.125C51.425 26 51.6875 26.1125 51.9125 26.3375C52.1375 26.5625 52.25 26.825 52.25 27.125C52.25 27.425 52.1375 27.6875 51.9125 27.9125C51.6875 28.1375 51.425 28.25 51.125 28.25V30.575C52.175 30.7 53.15 30.95 54.05 31.325C54.95 31.7 55.7875 32.2 56.5625 32.825L58.2125 31.175C57.9875 30.95 57.875 30.6875 57.875 30.3875C57.875 30.0875 57.9875 29.825 58.2125 29.6C58.4375 29.375 58.7063 29.2625 59.0188 29.2625C59.3313 29.2625 59.6 29.375 59.825 29.6L61.4 31.2125C61.625 31.4375 61.7375 31.7 61.7375 32C61.7375 32.3 61.625 32.5625 61.4 32.7875C61.175 33.0125 60.9062 33.125 60.5938 33.125C60.2813 33.125 60.0125 33.0125 59.7875 32.7875L58.175 34.4C58.8 35.175 59.3 36.0187 59.675 36.9312C60.05 37.8437 60.3 38.825 60.425 39.875H62.75C62.75 39.575 62.8625 39.3125 63.0875 39.0875C63.3125 38.8625 63.575 38.75 63.875 38.75C64.175 38.75 64.4375 38.8625 64.6625 39.0875C64.8875 39.3125 65 39.575 65 39.875V42.125C65 42.425 64.8875 42.6875 64.6625 42.9125C64.4375 43.1375 64.175 43.25 63.875 43.25C63.575 43.25 63.3125 43.1375 63.0875 42.9125C62.8625 42.6875 62.75 42.425 62.75 42.125H60.425C60.3 43.175 60.05 44.1563 59.675 45.0688C59.3 45.9813 58.8 46.825 58.175 47.6L59.7875 49.2125C60.0125 48.9875 60.2813 48.875 60.5938 48.875C60.9062 48.875 61.175 48.9875 61.4 49.2125C61.625 49.4375 61.7375 49.7063 61.7375 50.0188C61.7375 50.3313 61.625 50.6 61.4 50.825L59.825 52.4C59.6 52.625 59.3313 52.7375 59.0188 52.7375C58.7063 52.7375 58.4375 52.625 58.2125 52.4C57.9875 52.175 57.8812 51.9125 57.8937 51.6125C57.9062 51.3125 58.0125 51.05 58.2125 50.825L56.5625 49.175C55.7875 49.8 54.95 50.3062 54.05 50.6937C53.15 51.0812 52.175 51.3375 51.125 51.4625V53.75C51.425 53.75 51.6875 53.8625 51.9125 54.0875C52.1375 54.3125 52.25 54.575 52.25 54.875C52.25 55.175 52.1375 55.4375 51.9125 55.6625C51.6875 55.8875 51.425 56 51.125 56H48.875ZM50 48.5C52.075 48.5 53.8438 47.7688 55.3063 46.3063C56.7688 44.8438 57.5 43.075 57.5 41C57.5 38.925 56.7688 37.1562 55.3063 35.6937C53.8438 34.2312 52.075 33.5 50 33.5C47.925 33.5 46.1563 34.2312 44.6938 35.6937C43.2313 37.1562 42.5 38.925 42.5 41C42.5 43.075 43.2313 44.8438 44.6938 46.3063C46.1563 47.7688 47.925 48.5 50 48.5ZM47.375 47C47.8 47 48.1563 46.8563 48.4438 46.5688C48.7313 46.2813 48.875 45.925 48.875 45.5C48.875 45.075 48.7313 44.7188 48.4438 44.4313C48.1563 44.1438 47.8 44 47.375 44C46.95 44 46.5937 44.1438 46.3062 44.4313C46.0187 44.7188 45.875 45.075 45.875 45.5C45.875 45.925 46.0187 46.2813 46.3062 46.5688C46.5937 46.8563 46.95 47 47.375 47ZM52.625 47C53.05 47 53.4063 46.8563 53.6938 46.5688C53.9813 46.2813 54.125 45.925 54.125 45.5C54.125 45.075 53.9813 44.7188 53.6938 44.4313C53.4063 44.1438 53.05 44 52.625 44C52.2 44 51.8438 44.1438 51.5563 44.4313C51.2688 44.7188 51.125 45.075 51.125 45.5C51.125 45.925 51.2688 46.2813 51.5563 46.5688C51.8438 46.8563 52.2 47 52.625 47ZM44.75 42.5C45.175 42.5 45.5313 42.3563 45.8188 42.0688C46.1063 41.7813 46.25 41.425 46.25 41C46.25 40.575 46.1063 40.2188 45.8188 39.9313C45.5313 39.6438 45.175 39.5 44.75 39.5C44.325 39.5 43.9687 39.6438 43.6812 39.9313C43.3937 40.2188 43.25 40.575 43.25 41C43.25 41.425 43.3937 41.7813 43.6812 42.0688C43.9687 42.3563 44.325 42.5 44.75 42.5ZM50 42.5C50.425 42.5 50.7813 42.3563 51.0688 42.0688C51.3563 41.7813 51.5 41.425 51.5 41C51.5 40.575 51.3563 40.2188 51.0688 39.9313C50.7813 39.6438 50.425 39.5 50 39.5C49.575 39.5 49.2188 39.6438 48.9313 39.9313C48.6438 40.2188 48.5 40.575 48.5 41C48.5 41.425 48.6438 41.7813 48.9313 42.0688C49.2188 42.3563 49.575 42.5 50 42.5ZM55.25 42.5C55.675 42.5 56.0313 42.3563 56.3188 42.0688C56.6063 41.7813 56.75 41.425 56.75 41C56.75 40.575 56.6063 40.2188 56.3188 39.9313C56.0313 39.6438 55.675 39.5 55.25 39.5C54.825 39.5 54.4688 39.6438 54.1813 39.9313C53.8938 40.2188 53.75 40.575 53.75 41C53.75 41.425 53.8938 41.7813 54.1813 42.0688C54.4688 42.3563 54.825 42.5 55.25 42.5ZM47.375 38C47.8 38 48.1563 37.8562 48.4438 37.5687C48.7313 37.2812 48.875 36.925 48.875 36.5C48.875 36.075 48.7313 35.7187 48.4438 35.4312C48.1563 35.1437 47.8 35 47.375 35C46.95 35 46.5937 35.1437 46.3062 35.4312C46.0187 35.7187 45.875 36.075 45.875 36.5C45.875 36.925 46.0187 37.2812 46.3062 37.5687C46.5937 37.8562 46.95 38 47.375 38ZM52.625 38C53.05 38 53.4063 37.8562 53.6938 37.5687C53.9813 37.2812 54.125 36.925 54.125 36.5C54.125 36.075 53.9813 35.7187 53.6938 35.4312C53.4063 35.1437 53.05 35 52.625 35C52.2 35 51.8438 35.1437 51.5563 35.4312C51.2688 35.7187 51.125 36.075 51.125 36.5C51.125 36.925 51.2688 37.2812 51.5563 37.5687C51.8438 37.8562 52.2 38 52.625 38Z" fill="#1C1B1F"/>
</g>
</g>
<defs>
<clipPath id="clip0_177_971">
<rect width="100" height="100" fill="white"/>
</clipPath>
</defs>
</svg>
