<svg width="100" height="100" viewBox="0 0 100 100" fill="none" xmlns="http://www.w3.org/2000/svg">
<path d="M50 90.8037L32.7666 53.3516C37.058 58.0109 43.1894 60.9131 50 60.9131C56.8247 60.9131 62.9663 57.9776 67.2588 53.293L50 90.8037ZM70.7979 45.6035L69.249 48.9668C65.3038 55.5293 58.1583 59.9131 50 59.9131C41.8846 59.9131 34.7714 55.6084 30.8135 49.1055L29.2021 45.6035H70.7979ZM50 14.5C62.4222 14.5 72.5 24.6623 72.5 37.207C72.5 39.797 72.0695 42.2851 71.2783 44.6035H28.7119C27.9272 42.2887 27.5 39.8016 27.5 37.207C27.5 24.6623 37.5778 14.5 50 14.5Z" fill="black" stroke="black"/>
<path d="M36.0146 36.0244C36.2342 36.0599 36.4512 36.1002 36.6641 36.1494V36.1504C37.0431 36.2405 37.4279 36.3575 37.8193 36.5039C37.8189 36.5479 37.8174 36.5918 37.8174 36.6357C37.8174 41.0378 40.2552 44.8657 43.8633 46.9277C43.7948 47.2958 43.7012 47.6688 43.582 48.0469C43.5154 48.2528 43.4415 48.4559 43.3623 48.6553C38.9673 46.3446 36.0002 41.8246 36 36.6406C36 36.4343 36.0052 36.2287 36.0146 36.0244ZM63.9922 36.2168C63.9965 36.3572 64 36.4987 64 36.6406C63.9998 41.7326 61.134 46.184 56.8652 48.5273C56.7971 48.3489 56.733 48.1685 56.6758 47.9854L56.6748 47.9834L56.5723 47.6318C56.4983 47.3555 56.4388 47.0723 56.3906 46.7832C59.8348 44.7048 62.151 40.992 62.1855 36.7324C62.5689 36.5833 62.9802 36.4518 63.4131 36.3428C63.6074 36.2938 63.8008 36.2526 63.9922 36.2168ZM50 23C52.6205 23 55.0721 23.7022 57.165 24.9219C57.1352 24.9549 57.1064 24.9889 57.0762 25.0215L56.8135 25.2939C56.4849 25.618 56.1459 25.905 55.7949 26.165C54.0709 25.2515 52.0965 24.7305 50 24.7305C47.9232 24.7305 45.9643 25.2415 44.252 26.1377C43.9826 25.9379 43.7284 25.73 43.4902 25.5107L43.2227 25.2539C43.1055 25.1369 42.9925 25.0156 42.8818 24.8926C44.9639 23.6906 47.3963 23 50 23Z" fill="black" stroke="white" stroke-width="2"/>
<path d="M47.5303 39.792C48.255 40.3404 49.1562 40.667 50.1348 40.667C51.0539 40.667 51.9078 40.378 52.6104 39.8848L53.4219 40.3027C51.2299 45.8639 53.3265 52.3716 58.5957 55.4629H58.5967C59.8902 56.2206 61.2644 56.7051 62.6553 56.9395C59.9496 57.1964 57.1423 56.6333 54.6104 55.1484C53.072 54.2464 51.7715 53.0844 50.7354 51.7471L49.9541 50.7393L49.1611 51.7373C46.4916 55.1003 42.4781 56.9188 38.3887 56.8584C41.5289 56.0872 44.3639 54.0642 46.1035 51.0039C48.0476 47.584 48.1995 43.6117 46.8643 40.2119L47.5303 39.792ZM61.6416 15.5508C62.8964 17.6445 63.6201 20.1049 63.6201 22.7393C63.6201 24.6408 63.2449 26.451 62.5625 28.0986L62.0713 29.2832L63.3408 29.4697C65.0019 29.7138 66.6478 30.2742 68.1934 31.1797C70.262 32.3934 71.8975 34.0802 73.0479 36.0273C72.4647 35.4554 71.8171 34.935 71.1064 34.4795L70.6904 34.2246C65.384 31.1122 58.7284 32.5543 55.0879 37.3379L54.4268 36.9922C54.4673 36.7512 54.4902 36.5042 54.4902 36.2529C54.4902 34.3673 53.32 32.7517 51.6641 32.123V31.3857C55.2639 30.8931 58.6099 28.7729 60.5635 25.3359C62.3159 22.2498 62.6025 18.7102 61.6416 15.5508ZM38.5088 15.3867C36.7788 20.7915 38.9288 26.878 43.9785 29.8408V29.8418C45.3485 30.6485 46.8138 31.1459 48.2891 31.3662V32.2598C46.8003 32.9648 45.7754 34.4956 45.7754 36.2568C45.7754 36.4627 45.7927 36.6651 45.8203 36.8633L45.2031 37.251C44.2572 36.0038 43.0615 34.9171 41.6367 34.0791L41.6357 34.0781C36.7139 31.1884 30.6413 32.1797 26.832 36.0967C29.004 32.2818 32.6841 29.9208 36.6543 29.3369L37.9092 29.1523L37.4365 27.9746C36.7893 26.3619 36.4297 24.5917 36.4297 22.7393C36.4297 20.0353 37.193 17.5155 38.5088 15.3867Z" fill="black" stroke="white" stroke-width="2"/>
</svg>
