<?xml version="1.0" encoding="UTF-8"?>
<svg id="Capa_1" xmlns="http://www.w3.org/2000/svg" version="1.1" xmlns:xlink="http://www.w3.org/1999/xlink" viewBox="0 0 100 100">
  <!-- Generator: Adobe Illustrator 29.5.1, SVG Export Plug-In . SVG Version: 2.1.0 Build 141)  -->
  <defs>
    <style>
      .st0 {
        fill: #835fff;
        stroke: #0097f4;
        stroke-width: 2px;
      }

      .st1 {
        mask: url(#mask);
      }

      .st2 {
        fill: #00f4f0;
      }

      .st3 {
        fill: #d9d9d9;
      }
    </style>
    <mask id="mask" x=".28" y="-7.94" width="100.24" height="107" maskUnits="userSpaceOnUse">
      <g id="mask0_177_963">
        <rect class="st3" x="16.9" y="3.06" width="67" height="84.99" transform="translate(29.09 -18.95) rotate(29.61)"/>
      </g>
    </mask>
  </defs>
  <path class="st2" d="M49.97,91.73c-1.06,0-2.26-2.83-4.31-7.3-3.17-6.99-8.04-17.71-11.04-24.35-.37-1.13-3.02-5.87-1.22-5.78,3.08.89,6.19,3.01,9.65,3.84,4.61,1.32,9.66,1.28,14.24-.1,3.38-.86,6.4-2.99,9.41-3.81,1.69.08-1.05,4.87-1.41,6.02-3.08,6.81-8.03,17.71-11.16,24.62-1.94,4.23-3.08,6.86-4.11,6.87h-.06ZM70.81,47.49c.05,1.08-.92,2.62-2.5,4.3-6.74,7.41-18.54,9.88-27.84,6.03-4.73-1.84-11.35-7-11.23-10.51.88-2.94,9.12-1.72,12.04-2,6.66,0,15.44,0,21.67,0,4.64.11,7.37,0,7.85,2.09v.09ZM50.1,14.85c13.6-.21,24.54,13.03,22.02,25.79-1.67,5.43-8.27,4.06-12.92,4.31-3.49,0-7.44,0-11.05,0-5.37-.22-15.17.77-18.19-1.34-2.17-1.44-2.5-4.06-2.45-6.57.05-11.9,10.36-22.4,22.4-22.18h.2Z"/>
  <g class="st1">
    <path class="st0" d="M77.75,18.48l-.65.81-13.89,17.33,14.39,4.09-2.06,1.31-51.45,32.58-.67.42-6.75-2.34,1.42-1.56,20.09-22.15-12.16-3.75s2.29-1.38,2.29-1.38l43.83-26.44.43-.26,5.17,1.34Z"/>
  </g>
</svg>