<?xml version="1.0" encoding="UTF-8"?>
<svg id="Capa_1" xmlns="http://www.w3.org/2000/svg" version="1.1" xmlns:xlink="http://www.w3.org/1999/xlink" viewBox="0 0 100 100">
  <!-- Generator: Adobe Illustrator 29.5.1, SVG Export Plug-In . SVG Version: 2.1.0 Build 141)  -->
  <defs>
    <style>
      .st0 {
        mask: url(#mask);
      }

      .st1 {
        fill: #f4000d;
        stroke-miterlimit: 10;
        stroke-width: 2px;
      }

      .st1, .st2 {
        stroke: #fff;
      }

      .st3 {
        fill: #00b5c9;
        stroke-width: .25px;
      }

      .st3, .st4 {
        stroke: #000;
      }

      .st4 {
        fill: #fff;
      }

      .st2 {
        fill: #d9d9d9;
      }
    </style>
    <mask id="mask" x="16" y="4" width="68" height="68" maskUnits="userSpaceOnUse">
      <g id="mask0_177_972">
        <rect class="st2" x="16.5" y="4.5" width="67" height="67"/>
      </g>
    </mask>
  </defs>
  <path class="st3" d="M50,90.8l-17.23-37.45c4.29,4.66,10.42,7.56,17.23,7.56s12.97-2.94,17.26-7.62l-17.26,37.51ZM70.8,45.6l-1.55,3.36c-3.95,6.56-11.09,10.95-19.25,10.95s-15.23-4.3-19.19-10.81l-1.61-3.5h41.6ZM50,14.5c12.42,0,22.5,10.16,22.5,22.71,0,2.59-.43,5.08-1.22,7.4H28.71c-.78-2.31-1.21-4.8-1.21-7.4,0-12.54,10.08-22.71,22.5-22.71Z"/>
  <g class="st0">
    <path class="st1" d="M34.42,19.17h31.17c.69,0,1.3.2,1.87.59.56.4.94.91,1.15,1.55h0s0,.01,0,.01l5.89,16.84v22.5c0,.55-.18.97-.52,1.31-.35.35-.76.52-1.31.52h-2.83c-.55,0-.97-.18-1.31-.52-.35-.35-.52-.76-.52-1.31v-3.83h-36v3.83c0,.55-.18.97-.52,1.31-.35.35-.76.52-1.31.52h-2.83c-.55,0-.97-.18-1.31-.52-.35-.35-.52-.76-.52-1.31v-22.5l5.89-16.84h0s0-.01,0-.01c.22-.65.59-1.16,1.15-1.55.49-.35,1.02-.54,1.61-.59h.26ZM37.25,39.83c-1.44,0-2.7.52-3.72,1.53-1.02,1.02-1.53,2.28-1.53,3.72,0,1.44.52,2.7,1.53,3.72,1.02,1.02,2.28,1.53,3.72,1.53s2.7-.52,3.72-1.53c1.02-1.02,1.53-2.27,1.53-3.72,0-1.44-.52-2.7-1.53-3.72-1.02-1.02-2.28-1.53-3.72-1.53ZM62.75,39.83c-1.44,0-2.7.52-3.72,1.53-1.02,1.02-1.53,2.28-1.53,3.72,0,1.44.52,2.7,1.53,3.72,1.02,1.02,2.28,1.53,3.72,1.53s2.7-.52,3.72-1.53c1.02-1.02,1.53-2.27,1.53-3.72,0-1.44-.52-2.7-1.53-3.72-1.02-1.02-2.28-1.53-3.72-1.53ZM34.46,23.5l-2.98,8.5-.47,1.33h38.24l-.51-1.35-3.22-8.5-.24-.65h-30.58l-.23.67ZM63.9,24.83l2.46,6.5h-32.52l2.28-6.5h27.78Z"/>
  </g>
  <ellipse class="st4" cx="37.23" cy="45.08" rx="4.46" ry="4.58"/>
  <ellipse class="st4" cx="62.75" cy="45.08" rx="4.46" ry="4.58"/>
</svg>