<svg width="100" height="100" viewBox="0 0 100 100" fill="none" xmlns="http://www.w3.org/2000/svg">
<g clip-path="url(#clip0_177_972)">
<rect width="100" height="100" fill="white"/>
<mask id="mask0_177_972" style="mask-type:alpha" maskUnits="userSpaceOnUse" x="0" y="0" width="100" height="100">
<rect width="100" height="100" fill="#D9D9D9"/>
</mask>
<g mask="url(#mask0_177_972)">
<path d="M50 91.6667C38.8195 82.1528 30.4688 73.316 24.9479 65.1563C19.4271 56.9965 16.6667 49.4444 16.6667 42.5C16.6667 32.0833 20.0174 23.7847 26.7188 17.6042C33.4202 11.4236 41.1806 8.33334 50 8.33334C58.8195 8.33334 66.5799 11.4236 73.2813 17.6042C79.9827 23.7847 83.3334 32.0833 83.3334 42.5C83.3334 49.4444 80.5729 56.9965 75.0521 65.1563C69.5313 73.316 61.1806 82.1528 50 91.6667Z" fill="#1C1B1F"/>
</g>
<circle cx="50" cy="41" r="24" fill="white"/>
<mask id="mask1_177_972" style="mask-type:alpha" maskUnits="userSpaceOnUse" x="32" y="23" width="36" height="36">
<rect x="32" y="23" width="36" height="36" fill="#D9D9D9"/>
</mask>
<g mask="url(#mask1_177_972)">
<path d="M41 51.5V53C41 53.425 40.8563 53.7813 40.5688 54.0688C40.2813 54.3563 39.925 54.5 39.5 54.5H38C37.575 54.5 37.2187 54.3563 36.9312 54.0688C36.6437 53.7813 36.5 53.425 36.5 53V41L39.65 32C39.8 31.55 40.0688 31.1875 40.4563 30.9125C40.8438 30.6375 41.275 30.5 41.75 30.5H58.25C58.725 30.5 59.1563 30.6375 59.5438 30.9125C59.9313 31.1875 60.2 31.55 60.35 32L63.5 41V53C63.5 53.425 63.3562 53.7813 63.0687 54.0688C62.7812 54.3563 62.425 54.5 62 54.5H60.5C60.075 54.5 59.7188 54.3563 59.4313 54.0688C59.1438 53.7813 59 53.425 59 53V51.5H41ZM40.7 38H59.3L57.725 33.5H42.275L40.7 38ZM43.25 47C43.875 47 44.4062 46.7813 44.8438 46.3438C45.2813 45.9062 45.5 45.375 45.5 44.75C45.5 44.125 45.2813 43.5938 44.8438 43.1562C44.4062 42.7187 43.875 42.5 43.25 42.5C42.625 42.5 42.0938 42.7187 41.6562 43.1562C41.2187 43.5938 41 44.125 41 44.75C41 45.375 41.2187 45.9062 41.6562 46.3438C42.0938 46.7813 42.625 47 43.25 47ZM56.75 47C57.375 47 57.9062 46.7813 58.3438 46.3438C58.7813 45.9062 59 45.375 59 44.75C59 44.125 58.7813 43.5938 58.3438 43.1562C57.9062 42.7187 57.375 42.5 56.75 42.5C56.125 42.5 55.5938 42.7187 55.1562 43.1562C54.7187 43.5938 54.5 44.125 54.5 44.75C54.5 45.375 54.7187 45.9062 55.1562 46.3438C55.5938 46.7813 56.125 47 56.75 47ZM39.5 48.5H60.5V41H39.5V48.5Z" fill="#1C1B1F"/>
</g>
</g>
<defs>
<clipPath id="clip0_177_972">
<rect width="100" height="100" fill="white"/>
</clipPath>
</defs>
</svg>
