<svg width="100" height="100" viewBox="0 0 100 100" fill="none" xmlns="http://www.w3.org/2000/svg">
<g clip-path="url(#clip0_177_965)">
<path d="M50 90.8037L32.7666 53.3516C37.058 58.0109 43.1894 60.9131 50 60.9131C56.8247 60.9131 62.9663 57.9776 67.2588 53.293L50 90.8037ZM70.7979 45.6035L69.249 48.9668C65.3038 55.5293 58.1583 59.9131 50 59.9131C41.8846 59.9131 34.7714 55.6084 30.8135 49.1055L29.2021 45.6035H70.7979ZM50 14.5C62.4222 14.5 72.5 24.6623 72.5 37.207C72.5 39.797 72.0695 42.2851 71.2783 44.6035H28.7119C27.9272 42.2887 27.5 39.8016 27.5 37.207C27.5 24.6623 37.5778 14.5 50 14.5Z" fill="black" stroke="black"/>
<mask id="mask0_177_965" style="mask-type:alpha" maskUnits="userSpaceOnUse" x="16" y="-2" width="68" height="68">
<rect x="16.5" y="-1.5" width="66.9322" height="66.9322" fill="#D9D9D9" stroke="white"/>
</mask>
<g mask="url(#mask0_177_965)">
<path d="M49.9657 2.49042C54.3834 2.49042 58.2588 3.96656 61.5448 6.9035C64.682 9.70762 66.5684 13.1821 67.1864 17.2902C70.1986 18.6401 72.6226 20.7112 74.4393 23.4914C76.3568 26.4257 77.3201 29.6492 77.3201 33.1389C77.3201 37.96 75.6097 42.0992 72.2098 45.4992C68.8097 48.8993 64.6698 50.6096 59.8485 50.6096H54.2606V63.7873H45.6717V50.6096H40.0838C35.2625 50.6096 31.1226 48.8993 27.7225 45.4992C24.3225 42.0992 22.6122 37.96 22.6121 33.1389C22.6121 29.6492 23.5755 26.4258 25.493 23.4914C27.3096 20.7115 29.7331 18.6401 32.7449 17.2902C33.3628 13.182 35.2502 9.70765 38.3875 6.9035C41.6734 3.96668 45.5481 2.49052 49.9657 2.49042Z" fill="black" stroke="white" stroke-width="2"/>
</g>
</g>
<defs>
<clipPath id="clip0_177_965">
<rect width="100" height="100" fill="white"/>
</clipPath>
</defs>
</svg>
