<svg width="100" height="100" viewBox="0 0 100 100" fill="none" xmlns="http://www.w3.org/2000/svg">
<g clip-path="url(#clip0_177_965)">
<rect width="100" height="100" fill="white"/>
<mask id="mask0_177_965" style="mask-type:alpha" maskUnits="userSpaceOnUse" x="0" y="0" width="100" height="100">
<rect width="100" height="100" fill="#D9D9D9"/>
</mask>
<g mask="url(#mask0_177_965)">
<path d="M50 91.6667C38.8194 82.1528 30.4688 73.316 24.9479 65.1563C19.4271 56.9965 16.6667 49.4445 16.6667 42.5C16.6667 32.0833 20.0174 23.7847 26.7188 17.6042C33.4201 11.4236 41.1806 8.33334 50 8.33334C58.8194 8.33334 66.5799 11.4236 73.2813 17.6042C79.9826 23.7847 83.3333 32.0833 83.3333 42.5C83.3333 49.4445 80.5729 56.9965 75.0521 65.1563C69.5313 73.316 61.1806 82.1528 50 91.6667Z" fill="#1C1B1F"/>
</g>
<circle cx="50" cy="41" r="24" fill="white"/>
<mask id="mask1_177_965" style="mask-type:alpha" maskUnits="userSpaceOnUse" x="32" y="23" width="36" height="36">
<rect x="32" y="23" width="36" height="36" fill="#D9D9D9"/>
</mask>
<g mask="url(#mask1_177_965)">
<path d="M39.5 56V53H48.5V47H45.5C43.425 47 41.6562 46.2688 40.1937 44.8063C38.7312 43.3438 38 41.575 38 39.5C38 38 38.4125 36.6188 39.2375 35.3563C40.0625 34.0938 41.175 33.175 42.575 32.6C42.8 30.725 43.6187 29.1563 45.0312 27.8938C46.4438 26.6313 48.1 26 50 26C51.9 26 53.5562 26.6313 54.9688 27.8938C56.3813 29.1563 57.2 30.725 57.425 32.6C58.825 33.175 59.9375 34.0938 60.7625 35.3563C61.5875 36.6188 62 38 62 39.5C62 41.575 61.2688 43.3438 59.8063 44.8063C58.3438 46.2688 56.575 47 54.5 47H51.5V53H60.5V56H39.5ZM45.5 44H54.5C55.75 44 56.8125 43.5625 57.6875 42.6875C58.5625 41.8125 59 40.75 59 39.5C59 38.6 58.7438 37.775 58.2313 37.025C57.7188 36.275 57.05 35.725 56.225 35.375L54.65 34.7L54.425 32.975C54.275 31.85 53.7813 30.9063 52.9438 30.1438C52.1063 29.3812 51.125 29 50 29C48.875 29 47.8937 29.3812 47.0562 30.1438C46.2187 30.9063 45.725 31.85 45.575 32.975L45.35 34.7L43.775 35.375C42.95 35.725 42.2813 36.275 41.7688 37.025C41.2563 37.775 41 38.6 41 39.5C41 40.75 41.4375 41.8125 42.3125 42.6875C43.1875 43.5625 44.25 44 45.5 44Z" fill="#1C1B1F"/>
</g>
</g>
<defs>
<clipPath id="clip0_177_965">
<rect width="100" height="100" fill="white"/>
</clipPath>
</defs>
</svg>
